<?xml version="1.0" encoding="UTF-8"?>
<svg id="Layer_1" xmlns="http://www.w3.org/2000/svg" version="1.1" viewBox="0 0 1000 320">
  <!-- Generator: Adobe Illustrator 30.0.0, SVG Export Plug-In . SVG Version: 2.1.1 Build 123)  -->
  <defs>
    <style>
      .st0 {
        fill: #fff;
      }
    </style>
  </defs>
  <path class="st0" d="M442.86,128.42h-1.21c-1.94,6.23-4.91,11.04-8.92,14.44-4,3.4-8.96,5.1-14.86,5.1h-15.89v-34.09h16.14c1.94.08,3.72.57,5.34,1.46,3.23,1.94,4.85,4.93,4.85,8.98v.97h1.21v-28.03h-1.21v1.09c0,2.91-.97,5.36-2.91,7.34-1.94,1.98-4.41,3.01-7.4,3.09h-16.01v-35.3h20.38c3.64.16,6.53,1.35,8.67,3.58,2.14,2.23,3.22,5.16,3.22,8.8v1.46h1.21v-21.23c-1.21.48-3.32.97-6.31,1.46-2.99.49-5.74.73-8.25.73h-46.47v1.21h1.58c1.29,0,2.55.32,3.76.97,2.43,1.38,3.76,3.48,4,6.31v67.58c-.08,2.1-.87,3.9-2.37,5.4-1.5,1.5-3.3,2.24-5.4,2.24h-1.58v1.21h62.84l5.58-24.75Z"/>
  <path class="st0" d="M670.35,151.96h-.97c-1.86,0-3.22-.55-4.06-1.64-.85-1.09-1.27-2.1-1.27-3.03s.2-1.92.61-2.97l6.31-14.92h28.39l5.94,14.92c.4.97.61,1.94.61,2.91s-.42,2-1.27,3.09c-.85,1.09-2.17,1.64-3.94,1.64h-1.09v1.21h38.7v-1.21h-1.09c-1.94,0-3.84-.59-5.7-1.76-1.86-1.17-3.4-2.93-4.61-5.28l-36.03-79.1h-1.09c-.24,2.59-2.26,7.89-6.07,15.89l-28.03,63.45c-1.21,2.27-2.75,3.96-4.61,5.1-1.86,1.13-3.72,1.7-5.58,1.7h-1.09v1.21h25.96v-1.21ZM685.52,94.45l11.77,29.84h-24.26l12.5-29.84Z"/>
  <path class="st0" d="M574.27,149.84c-1.46-1.41-2.18-3.13-2.18-5.16v-48.16h0s0-13.33,0-13.33l-17.6-16.76h-1.09l.24,1.82c.73,3.56,1.09,8.01,1.09,13.34v62.97c0,2.1-.73,3.86-2.18,5.28-1.46,1.42-3.24,2.12-5.34,2.12h-2.18c-3.15-.08-5.78-.77-7.89-2.06-4.21-2.67-10.68-11-19.41-24.99-3.56-5.58-7.68-9.14-12.37-10.68,4.37-.49,8.11-1.94,11.22-4.37,3.11-2.43,5.34-5.26,6.67-8.49,1.33-3.23,2-6.77,2-10.62s-.81-7.28-2.43-10.31c-1.62-3.03-3.8-5.4-6.55-7.1-5.42-3.4-12.05-5.09-19.9-5.09h-41.61v1.21h1.58c2.1,0,3.9.75,5.4,2.24,1.5,1.5,2.28,3.3,2.37,5.4v67.33c-.08,1.38-.44,2.63-1.09,3.76-1.54,2.51-3.76,3.76-6.67,3.76h-1.58v1.21h36.88v-1.21h-1.58c-1.38,0-2.67-.32-3.88-.97-2.51-1.46-3.8-3.68-3.88-6.67v-70.73h9.22c4.2.08,7.64,1.6,10.31,4.55,2.67,2.95,4,7.75,4,14.38,0,.97-.16,2.31-.48,4-.97,4.93-2.85,8.49-5.64,10.68-2.79,2.18-6.01,3.28-9.65,3.28h-3.76v1.21c3.31.57,6.07,3.28,8.25,8.13.73,2.02,2.22,5.4,4.49,10.13,2.26,4.73,4.12,8.27,5.58,10.62,2.91,4.61,6.67,7.87,11.28,9.77,4.61,1.9,10.35,2.85,17.23,2.85h48.65v-1.21h-2.31c-2.02,0-3.76-.71-5.22-2.12Z"/>
  <path class="st0" d="M634.44,154.87l-.36-1.82c-.73-3.72-1.09-8.29-1.09-13.71v-62.6c.08-2.02.85-3.74,2.31-5.16,1.46-1.41,3.19-2.12,5.22-2.12h2.31v-1.21h-36.76v1.21h2.18c2.02,0,3.76.71,5.22,2.12,1.46,1.42,2.22,3.18,2.31,5.28v47.92l-38.6-36.77v13.33l56.19,53.52h1.09Z"/>
  <path class="st0" d="M660.13,219.51l-21.94-14.91c-2.89-1.87-5.01-3.61-6.34-5.19-1.33-1.59-1.99-3.52-1.99-5.81s.66-4.4,1.99-6.36c2.74-3.83,7.16-5.74,13.26-5.74,5.01,0,9.04,1.28,12.09,3.85s4.61,5.97,4.69,10.21h1.06l1.52-17.97h-7.27c-6.34-.81-11.73-1.22-16.19-1.22-7.27,0-13.08,1.98-17.42,5.93-4.34,3.95-6.75,9.07-7.22,15.34-.08.82-.12,1.63-.12,2.44,0,7.99,3.87,14.5,11.62,19.56l19.95,13.93c3.68,2.53,6.43,5.38,8.27,8.56,1.84,3.18,2.76,6.19,2.76,9.04,0,7.58-3.28,13.04-9.86,16.38-3.28,1.63-7,2.44-11.15,2.44s-7.96-.78-11.44-2.32c-3.48-1.55-6.36-3.71-8.62-6.48-4.15-4.89-6.22-10.31-6.22-16.26,0-5.46,1.56-10.8,4.69-16.01l-1.06-.86c-4.62,6.11-6.92,12.59-6.92,19.43,0,2.12.23,4.16.7,6.11,2.27,9.13,7.59,15.52,15.96,19.19,4.54,2.04,9.6,3.06,15.2,3.06s10.7-.98,15.31-2.93c4.61-1.96,8.39-4.48,11.32-7.58,2.93-3.1,5.04-6.46,6.34-10.08,1.29-3.62,1.94-7.07,1.94-10.33,0-5.05-1.49-9.98-4.46-14.79-2.5-4.07-5.98-7.62-10.44-10.63Z"/>
  <path class="st0" d="M757.06,264.72c-1.66-1.05-3.03-2.62-4.12-4.71l-32.18-70.65h-.97c-.22,2.31-2.02,7.04-5.42,14.19l-25.03,56.67c-1.08,2.02-2.46,3.54-4.12,4.55-1.66,1.01-3.32,1.52-4.98,1.52h-.97v1.08h23.19v-1.08h-.87c-1.66,0-2.87-.49-3.63-1.46-.76-.97-1.14-1.88-1.14-2.71s.18-1.71.54-2.65l5.63-13.33h25.35l5.31,13.33c.36.87.54,1.73.54,2.6s-.38,1.79-1.14,2.76c-.76.98-1.93,1.46-3.52,1.46h-.98v1.08h34.56v-1.08h-.97c-1.73,0-3.43-.52-5.09-1.57ZM704.83,241.58l11.16-26.65,10.51,26.65h-21.67Z"/>
  <path class="st0" d="M816.56,231.52h1.73c1.81,0,3.2.42,4.17,1.25.98.83,1.46,2.04,1.46,3.63v16.58c-.87,2.24-2.24,4.19-4.12,5.85-3.83,3.25-8.6,4.88-14.31,4.88-7.88,0-13.97-3.07-18.26-9.21-4.3-6.14-6.45-14.65-6.45-25.52s2.35-19.44,7.05-25.69c4.7-6.25,11.41-9.37,20.16-9.37,6.29,0,11.71,1.57,16.26,4.71,4.55,3.14,7.77,8.22,9.64,15.23h.98l-.22-18.64c-3.32-1.66-7.7-3.05-13.11-4.17-5.42-1.12-11.02-1.68-16.8-1.68-12.79,0-22.92,3.54-30.4,10.62-7.48,7.08-11.22,16.67-11.22,28.78s3.74,21.71,11.22,28.83c7.48,7.12,17.4,10.68,29.75,10.68,8.09,0,15.39-1.41,21.89-4.23,6.5-2.82,11.16-6.07,13.98-9.75v-17.88c0-1.59.47-2.8,1.41-3.63.94-.83,2.28-1.25,4.01-1.25h1.63v-1.08h-30.46v1.08Z"/>
  <path class="st0" d="M982.06,290.36c-2.14.53-4.35.8-6.62.8s-5.06-.53-8.36-1.61c-3.3-1.07-6.51-2.99-9.63-5.75-7.67-6.78-15.16-19.21-22.47-37.31l-19.39-47.88c-4.37-10.61-9.41-18.72-15.11-24.34-3.97-3.9-8.29-6.47-12.96-7.71-2.71-.72-5.05-.79-6.7-.85-6.23-.23-11.02,1.12-13.19,1.82-4.21,1.38-7.76,2.54-10.79,5.96-1.05,1.19-3.17,3.65-3.69,7.48-.15,1.06-.73,5.31,2.18,9.08,2.69,3.5,6.55,4.21,7.48,4.35-.85-.29-4.63-1.68-6.62-5.68-.39-.79-1.71-3.53-.95-6.91.65-2.9,2.46-4.61,3.79-5.87,1.11-1.05,4.79-4.24,10.41-4.64,5.2-.37,9,1.87,10.99,3.08,8.15,4.96,10.53,13.76,11.1,16.18l-29.82,68.07c-1.34,2.41-3.01,4.21-5.02,5.42-2.01,1.2-4.03,1.8-6.09,1.8h-1.2v1.34h28.62v-1.34h-1.07c-1.25,0-2.39-.33-3.41-1-1.03-.67-1.69-1.42-2.01-2.27-.31-.85-.47-1.63-.47-2.34s.22-1.65.67-2.81l7.09-16.85h31.56l4.28,11.37c2.94,7.76,6.46,14.58,10.56,20.46,7.67,11.05,16.8,18.28,27.42,21.67,9.98,3.3,19.84,2.5,29.56-2.41l-.13-1.34ZM881.09,234.85l14.44-34.5c.27.89.8,2.43,1.6,4.61.8,2.19,1.42,3.9,1.87,5.15l9.36,24.74h-27.28Z"/>
  <path class="st0" d="M388.91,257.9c-3.68,3.12-8.23,4.68-13.65,4.68h-14.6v-31.32h14.82c1.78.07,3.42.52,4.9,1.34,2.97,1.78,4.46,4.53,4.46,8.25v.89h1.11v-25.74h-1.11v1c0,2.67-.89,4.92-2.67,6.74-1.78,1.82-4.05,2.77-6.8,2.84h-14.71v-32.43h18.72c3.34.15,6,1.25,7.97,3.29,1.97,2.04,2.95,4.74,2.95,8.08v1.34h1.11v-19.5c-1.11.45-3.05.89-5.8,1.34-2.75.45-5.28.67-7.58.67h-42.68v-.04h-23.52v1.09h1c1.63,0,2.8.49,3.51,1.47.7.98,1.06,1.9,1.06,2.77s-.11,1.7-.33,2.5l-8.74,30,3.89,8.46,12.43-38.9c.82-2.03,2.17-3.59,4.07-4.67,1.89-1.09,3.77-1.63,5.63-1.63h1v.07h1.45c1.19,0,2.34.3,3.45.89,2.23,1.26,3.45,3.2,3.68,5.8v62.08c-.08,1.93-.8,3.59-2.17,4.96-1.38,1.38-3.03,2.06-4.96,2.06h-1.45v1.11h57.73l5.13-22.74h-1.11c-1.78,5.72-4.51,10.14-8.19,13.26Z"/>
  <path class="st0" d="M463.41,241.4c-3.27-5.13-7.06-8.4-11.37-9.81,4.01-.45,7.45-1.78,10.31-4.01,2.86-2.23,4.9-4.83,6.13-7.8,1.23-2.97,1.84-6.22,1.84-9.75s-.74-6.69-2.23-9.47c-1.49-2.79-3.49-4.96-6.02-6.52-4.98-3.12-11.07-4.68-18.28-4.68h-38.23v1.11h1.45c1.93,0,3.58.69,4.96,2.06,1.37,1.38,2.1,3.03,2.17,4.96v61.85c-.07,1.26-.41,2.41-1,3.45-1.41,2.3-3.45,3.45-6.13,3.45h-1.45v1.11h33.88v-1.11h-1.45c-1.26,0-2.45-.3-3.57-.89-2.3-1.34-3.49-3.38-3.57-6.13v-64.97h8.47c3.86.07,7.02,1.47,9.47,4.18,2.45,2.71,3.68,7.11,3.68,13.21,0,.89-.15,2.12-.44,3.68-.89,4.53-2.62,7.8-5.18,9.81-2.56,2.01-5.52,3.01-8.86,3.01h-3.45v1.11c3.05.52,5.57,3.01,7.58,7.47.67,1.86,2.04,4.96,4.12,9.31,2.08,4.35,3.79,7.6,5.13,9.75,2.67,4.23,6.13,7.23,10.37,8.97,4.23,1.75,9.51,2.62,15.83,2.62h10.92v-1.11c-2.9-.07-5.31-.71-7.24-1.89-3.86-2.45-9.81-10.1-17.83-22.96Z"/>
  <path class="st0" d="M181.42,247.62l.77,3.56.77-3.56c.84-3.89,3.26-7.33,6.62-9.45l.19-.12-.19-.12c-3.36-2.12-5.78-5.57-6.62-9.45l-.77-3.56-.77,3.56c-.84,3.89-3.26,7.33-6.62,9.45l-.19.12.19.12c3.36,2.12,5.78,5.57,6.62,9.45Z"/>
  <path class="st0" d="M162.04,279.32c-8.78-1.09-17.51-3.15-25.84-6.03-9.41-3.39-18.61-8.57-28.28-12.26v-92.75h23.15c5.33.12,9.56,1.8,12.69,5.04,3.13,3.24,4.69,7.47,4.69,12.68v2.09h2.05v-30.23c-.09.04-.2.08-.31.12v-.12c-1.04.46-3.48,1.07-7.3,1.82-3.82.76-8.28,1.19-13.38,1.3H47.66c-10.66,0-18.94,3.48-24.85,10.43-3.13,3.59-4.69,7.82-4.69,12.69,0,6.25,2.84,12.11,8.51,17.55l.21-.1s.07.07.1.1l1.74-.87c-2.78-4.63-4.17-9.15-4.17-13.55,0-7.41,3.65-12.86,10.95-16.33,3.59-1.74,7.76-2.61,12.51-2.61h33.57v87.09c-9.5-.81-19.36.01-24.27,6.17-6.11,9.38-.19,20.68,10.89,21.25h0s.02,0,.02,0c0,0,0,0,0,0h0s.28,0,.28,0h52.82v-1.74h-2.26c-1.97,0-3.77-.46-5.39-1.39-3.59-2.09-5.5-5.21-5.73-9.38v-3.39c.49.19.99.37,1.48.57,8.16,3.33,16.3,7.65,25.07,10.68,32.58,11.73,84.89,13.82,93.77-28.84-11.54,27.76-38.92,33.71-66.2,30.03ZM81.54,270.45c-.12,2.9-1.25,5.39-3.39,7.47-2.14,2.09-4.72,3.13-7.73,3.13h-2.2s0,0,0,0c-9.84.57-14.4-10.57-8.59-17.64,2.57-2.86,6.97-3.55,11.21-3.62,3.56.03,7.13.26,10.7.65v10.01Z"/>
  <path class="st0" d="M262.58,234.96l-13.71-37.82c-.3-.8-.45-1.63-.45-2.5s.39-1.79,1.17-2.77c.78-.98,1.95-1.47,3.51-1.47h1v-1.09h-33.99v1.09h.89c1.86,0,3.68.53,5.46,1.58,1.78,1.05,3.16,2.63,4.12,4.73l26.64,70.65h1.11c.07-3.84.96-7.86,2.67-12.06l14.59-33.5-3.85-8.38-9.18,21.56Z"/>
  <path class="st0" d="M283.75,187.68l-1-.11-8,18.8,6.68,14.52,21.5,46.46h1.11v-.98c0-3.4.63-7.1,1.89-11.09l3.74-11.7-5.79-12.6-20.13-43.3Z"/>
  <path class="st0" d="M560.22,218.69l6.07-11.9-13.61,5.57-8.75-27.12-8.38,25.98-12.25-6.28,5.46,13.28-21.54,9.15,20.41,8.67-6.07,11.9,13.61-5.57,8.75,27.12,8.38-25.98,12.25,6.28-5.46-13.28,21.53-9.15-20.41-8.67ZM528.46,210.54l6.22,3.19c-.64,1.51-1.81,2.74-3.33,3.38l-.16.07-2.73-6.64ZM527.16,242.8l2.93-5.73,1.28.54c1.15.49,2.09,1.32,2.77,2.34l-6.98,2.85ZM549.52,229.59c-1.69.72-2.99,2.14-3.55,3.88l-2.04,6.32-2.04-6.32c-.56-1.75-1.86-3.17-3.55-3.88l-5.24-2.23,5.24-2.23c1.69-.72,2.99-2.14,3.55-3.88l2.04-6.32,2.04,6.32c.56,1.75,1.86,3.17,3.55,3.88l5.24,2.23-5.24,2.23ZM559.41,244.18l-6.22-3.19c.64-1.51,1.81-2.74,3.33-3.38l.16-.07,2.73,6.64ZM557.79,217.66l-1.28-.54c-1.15-.49-2.09-1.32-2.77-2.34l6.98-2.85-2.93,5.73Z"/>
  <path class="st0" d="M271.03,116.09h-1.82c-2.91,9.33-7.36,16.54-13.36,21.63-6,5.09-13.42,7.63-22.27,7.63h-23.82v-51.08h24.18c2.91.12,5.57.85,8,2.18,4.85,2.91,7.27,7.39,7.27,13.45v1.45h1.82v-41.99h-1.82v1.64c0,4.36-1.45,8.03-4.36,11-2.91,2.97-6.61,4.52-11.09,4.64h-24v-52.9h30.54c5.45.24,9.79,2.03,13,5.36,3.21,3.33,4.82,7.73,4.82,13.18v2.18h1.82v-31.81c-1.82.73-4.97,1.45-9.45,2.18-4.48.73-8.61,1.09-12.36,1.09h-69.63v1.82h2.36c1.94,0,3.82.49,5.64,1.45,3.64,2.06,5.64,5.21,6,9.45v101.26c-.12,3.15-1.3,5.85-3.55,8.09-2.24,2.24-4.94,3.36-8.09,3.36h-2.36v1.82h94.17l8.36-37.09ZM196.75,100.01l-.4,1.42-.4-1.42c-1.08-3.85-3.75-7.06-7.34-8.82,3.59-1.76,6.26-4.97,7.34-8.82l.4-1.42.4,1.42c1.08,3.85,3.75,7.06,7.34,8.82-3.59,1.76-6.26,4.97-7.34,8.82Z"/>
  <path class="st0" d="M778.11,153.17h66.26l8.36-37.08h-1.82c-2.91,9.33-7.36,16.54-13.36,21.63-6,5.09-13.42,7.63-22.27,7.63h-23.81V39.21c0-3.15,1.15-5.85,3.45-8.09,2.3-2.24,5.03-3.36,8.18-3.36h2.18l.18-1.82h-55.25v1.82h2.36c3.15,0,5.84,1.12,8.09,3.36,2.24,2.24,3.42,4.94,3.54,8.09v100.7c-.12,3.15-1.3,5.85-3.54,8.09-2.24,2.24-4.94,3.36-8.09,3.36h-2.36v1.82h27.89ZM777.45,82.37l.4-1.42.4,1.42c1.08,3.85,3.75,7.06,7.34,8.82-3.59,1.76-6.26,4.97-7.34,8.82l-.4,1.42-.4-1.42c-1.08-3.85-3.75-7.06-7.34-8.82,3.59-1.76,6.26-4.97,7.34-8.82Z"/>
  <path class="st0" d="M282.16,85.67c0-3.62,1.09-6.56,3.26-8.82,2.17-2.25,5.11-3.42,8.82-3.5h16.31v71.04c-.16,2.01-.99,3.74-2.48,5.19-1.49,1.45-3.24,2.17-5.26,2.17h-1.57v1.21h36.73l-.12-1.21h-1.45c-2.1,0-3.89-.72-5.38-2.17-1.49-1.45-2.28-3.22-2.36-5.32v-70.92h16.19c3.7.08,6.64,1.25,8.82,3.5,2.17,2.26,3.26,5.2,3.26,8.82v1.45h1.21v-21.02c-.56.24-2.1.65-4.59,1.21-2.5.56-5.72.89-9.66.97h-48.69c-2.5,0-5.22-.24-8.15-.72-2.94-.48-4.97-.97-6.1-1.45v21.02h1.21v-1.45Z"/>
  <path class="st0" d="M150.08,222.84l-.27.17.27.17c4.93,3.11,8.47,8.16,9.71,13.86l1.13,5.21,1.13-5.21c1.24-5.7,4.77-10.75,9.71-13.86l.27-.17-.27-.17c-4.93-3.11-8.47-8.16-9.71-13.86l-1.13-5.21-1.13,5.21c-.42,1.91-1.11,3.74-2.01,5.46-.12-.94-.18-1.87-.18-2.8,0-6.09,2.3-11.11,6.91-15.05,3.27-2.75,7.54-4.12,12.82-4.12,4.75,0,9.06,1.47,12.93,4.4,3.86,2.94,6.82,7.1,8.86,12.48,2.04,5.39,3.06,11.42,3.06,18.11,0,11.07-2.77,19.97-8.3,26.69-5.54,6.73-12.82,10.09-21.84,10.09s-16.33-3.57-21.9-10.7c-5.57-7.13-8.36-16.72-8.36-28.75,0-8.15,1.5-14.41,2.9-19.95.76-3,1.52-5.07,1.91-6.1,1.31-3.42,2.77-6.13,3.91-8.03-.68.05-1.37.11-2.05.16-3.11,1.03-5.44,2.33-7,3.34-2.41,1.56-4.02,3.09-5.65,4.65-1.22,1.17-2.76,2.64-4.44,4.81-.43.56-2.6,3.36-4.34,7.15-2.34,5.08-3.51,10.7-3.51,16.86,0,12.33,4.51,22.29,13.54,29.87,9.03,7.58,20.73,11.37,35.11,11.37s26.04-3.79,34.99-11.37c8.95-7.58,13.43-17.57,13.43-29.98,0-5.27-.93-10.21-2.79-14.82-3.27-8.39-9.1-14.97-17.5-19.73-6.39-3.64-13.15-5.46-20.28-5.46-5.42,0-10.07,1-13.93,3.01-2.82,1.41-5.02,3.18-6.58,5.29-1.56,2.12-2.67,4.27-3.34,6.46-.67,2.19-1,4.57-1,7.13,0,2.2.52,4.5,1.51,6.89-1.7,2.58-3.93,4.82-6.57,6.48Z"/>
</svg>